<?xml version="1.0" encoding="utf-8"?>
<!-- Generator: Adobe Illustrator 21.1.0, SVG Export Plug-In . SVG Version: 6.00 Build 0)  -->
<svg version="1.1" id="Layer_1" xmlns="http://www.w3.org/2000/svg" xmlns:xlink="http://www.w3.org/1999/xlink" x="0px" y="0px"
	 viewBox="0 0 512 512" style="enable-background:new 0 0 512 512;" xml:space="preserve">
<style type="text/css">
	.st0{fill:#EF7F0F;}
</style>
<g>
	<g>
		<path class="st0" d="M480.8,330.7c-25.6-25.6-62.7-36.3-97.9-28.6l-34.5-34.5l105.5-105.5c0,0,46.2-46.2,46.2-46.2
			c7.7-7.7,11.9-17.9,11.9-28.9c0-10.9-4.2-21.2-11.9-28.9L453.8,12C446.2,4.3,435.9,0.1,425,0.1c-10.9,0-21.2,4.2-28.9,11.9
			L244.5,163.6L210,129.1c7.7-35.2-3-72.3-28.6-97.9C152.6,2.5,110.9-7.3,72.4,5.6c-2.7,0.9-4.7,3.1-5.4,5.9
			c-0.6,2.8,0.2,5.6,2.2,7.6l56.2,56.2L115,115l-39.6,10.4L19.1,69.2c-2-2-4.9-2.8-7.6-2.2c-2.8,0.6-5,2.7-5.9,5.3
			c-12.9,38.5-3.2,80.3,25.6,109c25.6,25.6,62.7,36.3,97.9,28.6l17.2,17.2c1.6,1.6,3.7,2.4,5.8,2.4s4.2-0.8,5.8-2.4
			c3.2-3.2,3.2-8.4,0-11.6l-20.4-20.4c-2.1-2.1-5.1-2.9-7.9-2.1c-30.9,8.3-64.2-0.7-86.8-23.3c-21-21-30-50.3-25-78.9l49.4,49.4
			c2.1,2.1,5,2.9,7.9,2.1l48.8-12.8c2.8-0.7,5.1-3,5.8-5.8l12.3-46.6L172.9,46c20.3,22.5,28,54,20.1,83.5c-0.8,2.8,0.1,5.8,2.1,7.9
			l37.8,37.8L48.6,359.5c-0.2,0.2-0.4,0.4-0.6,0.7c0,0.1-0.1,0.1-0.1,0.2c-0.1,0.2-0.3,0.4-0.4,0.6c0,0.1-0.1,0.1-0.1,0.2
			c-0.1,0.2-0.2,0.4-0.3,0.6c0,0.1-0.1,0.2-0.1,0.2c-0.1,0.2-0.2,0.4-0.2,0.6c0,0,0,0.1-0.1,0.1L0.5,501.2c-1,2.9-0.2,6.2,2,8.4
			c1.6,1.6,3.6,2.4,5.8,2.4c0.9,0,1.7-0.1,2.6-0.4l138.5-46.2c0.1,0,0.1,0,0.1-0.1c0.2-0.1,0.4-0.2,0.6-0.2c0.1,0,0.2-0.1,0.2-0.1
			c0.2-0.1,0.4-0.2,0.6-0.3c0.1,0,0.1-0.1,0.2-0.1c0.2-0.1,0.4-0.3,0.6-0.4c0.1,0,0.1-0.1,0.2-0.1c0.2-0.2,0.5-0.4,0.7-0.6
			l184.3-184.3l37.8,37.8c2.1,2.1,5.1,2.9,7.9,2.1c30.9-8.3,64.2,0.7,86.8,23.3c21,21,30,50.3,25,78.9l-49.4-49.4
			c-2.1-2.1-5-2.9-7.9-2.1l-48.8,12.8c-2.8,0.7-5.1,3-5.8,5.8l-12.3,46.6L339.1,466c-20.3-22.5-28-54-20.1-83.5
			c0.8-2.8-0.1-5.8-2.1-7.9l-20.4-20.4c-3.2-3.2-8.4-3.2-11.6,0s-3.2,8.4,0,11.6l17.2,17.2c-7.7,35.2,3,72.3,28.6,97.9
			c0.7,0.7,1.3,1.3,2,2c0.2,0.2,0.3,0.4,0.5,0.6c0.3,0.3,0.7,0.6,1,0.9c19.8,18.1,45.2,27.7,71.2,27.7c11.4,0,22.9-1.8,34.1-5.6
			c2.7-0.9,4.7-3.1,5.3-5.9c0.6-2.8-0.2-5.6-2.2-7.6l-56.2-56.2L397,397l39.6-10.4l56.2,56.2c2,2,4.9,2.8,7.6,2.2
			c2.8-0.6,5-2.7,5.9-5.4C519.3,401.1,509.5,359.4,480.8,330.7z M134.5,61.3L90.9,17.7c24.8-4.4,50.1,1.8,70,17.2L134.5,61.3z
			 M407.7,23.5c4.6-4.6,10.7-7.1,17.3-7.1c6.6,0,12.7,2.5,17.3,7.1l46.2,46.2c9.5,9.5,9.5,25.1,0,34.6l-40.4,40.4l-80.8-80.8
			L407.7,23.5z M21.2,490.8l13.7-41.2l27.5,27.5L21.2,490.8z M79.7,471.3l-39-39L58,380.4l73.7,73.7L79.7,471.3z M146.8,446
			L66,365.2l259-259l34.6,34.6L117.9,382.6c-3.2,3.2-3.2,8.4,0,11.6c1.6,1.6,3.7,2.4,5.8,2.4c2.1,0,4.2-0.8,5.8-2.4l241.7-241.7
			l17.3,17.3c1.6,1.6,3.7,2.4,5.8,2.4c2.1,0,4.2-0.8,5.8-2.4c3.2-3.2,3.2-8.4,0-11.6l-23.1-23.1c0,0-40.4-40.4-40.4-40.4l19.2-19.2
			l80.8,80.8L146.8,446z M421.1,494.3c-24.8,4.4-50.1-1.8-70-17.2l26.4-26.4L421.1,494.3z"/>
	</g>
</g>
<g>
	<g>
		<path class="st0" d="M183.6,149c-3.2-3.2-8.4-3.2-11.6,0L149,172.1c-3.2,3.2-3.2,8.4,0,11.6c1.6,1.6,3.7,2.4,5.8,2.4
			s4.2-0.8,5.8-2.4l23.1-23.1C186.8,157.3,186.8,152.2,183.6,149z"/>
	</g>
</g>
<g>
	<g>
		<path class="st0" d="M363,328.4c-3.2-3.2-8.4-3.2-11.6,0l-23.1,23.1c-3.2,3.2-3.2,8.4,0,11.6c1.6,1.6,3.7,2.4,5.8,2.4
			s4.2-0.8,5.8-2.4l23.1-23.1C366.2,336.8,366.2,331.6,363,328.4z"/>
	</g>
</g>
</svg>
