<?xml version="1.0" encoding="utf-8"?>
<!-- Generator: Adobe Illustrator 21.1.0, SVG Export Plug-In . SVG Version: 6.00 Build 0)  -->
<svg version="1.1" id="Capa_1" xmlns="http://www.w3.org/2000/svg" xmlns:xlink="http://www.w3.org/1999/xlink" x="0px" y="0px"
	 viewBox="0 0 512 512" style="enable-background:new 0 0 512 512;" xml:space="preserve">
<style type="text/css">
	.st0{fill:#EF7F0F;}
</style>
<g>
	<g>
		<path class="st0" d="M496,208h-54.2c-4.5-17.5-11.3-34-20.4-49.5l38.3-38.3c3-3,4.7-7.1,4.7-11.3s-1.7-8.3-4.7-11.3l-45.3-45.3
			c-6.3-6.3-16.4-6.3-22.6,0l-38.3,38.3c-15.4-9.1-32-16-49.5-20.4V16c0-8.8-7.2-16-16-16h-64c-8.8,0-16,7.2-16,16v54.2
			c-17.5,4.5-34,11.3-49.5,20.4l-38.3-38.3c-6.3-6.3-16.4-6.3-22.6,0L52.4,97.6c-6.3,6.3-6.3,16.4,0,22.6l38.3,38.3
			c-9.1,15.5-16,32-20.4,49.5H16c-8.8,0-16,7.2-16,16v64c0,8.8,7.2,16,16,16h54.2c4.5,17.5,11.3,34,20.4,49.5l-38.3,38.3
			c-6.3,6.3-6.3,16.4,0,22.6l45.3,45.3c6.3,6.3,16.4,6.3,22.6,0l38.3-38.3c15.5,9.1,32,16,49.5,20.4V496c0,8.8,7.2,16,16,16h64
			c8.8,0,16-7.2,16-16v-54.2c17.5-4.5,34-11.3,49.5-20.4l38.3,38.3c6.3,6.3,16.4,6.3,22.6,0l45.3-45.3c3-3,4.7-7.1,4.7-11.3
			c0-4.2-1.7-8.3-4.7-11.3l-38.3-38.3c9.1-15.5,16-32,20.4-49.5H496c8.8,0,16-7.2,16-16v-64C512,215.2,504.8,208,496,208z M480,272
			h-51c-7.7,0-14.3,5.5-15.7,13.1c-4.1,22.3-12.7,43-25.4,61.5c-4.4,6.4-3.6,14.9,1.9,20.4l36.1,36l-22.6,22.6l-36-36
			c-5.4-5.4-14-6.2-20.4-1.9c-18.5,12.8-39.2,21.3-61.5,25.4c-7.6,1.4-13.1,8-13.1,15.7v51h-32v-51c0-7.7-5.5-14.3-13.1-15.7
			c-22.3-4.1-43-12.7-61.5-25.4c-6.3-4.4-14.9-3.6-20.4,1.9l-36,36l-22.6-22.6l36-36c5.5-5.5,6.2-14,1.9-20.4
			c-12.8-18.5-21.3-39.2-25.4-61.5c-1.4-7.6-8-13.1-15.7-13.1H32v-32h51c7.7,0,14.3-5.5,15.7-13.1c4.1-22.3,12.7-43,25.4-61.5
			c4.4-6.4,3.6-14.9-1.9-20.4l-36-36.1l22.6-22.6l36,36c5.5,5.5,14,6.3,20.4,1.9c18.5-12.8,39.2-21.3,61.5-25.4
			c7.6-1.4,13.1-8,13.1-15.7V32h32v51c0,7.7,5.5,14.3,13.1,15.7c22.3,4.1,43,12.7,61.5,25.4c6.4,4.4,15,3.6,20.4-1.9l36-36
			l22.6,22.6l-36.1,36c-5.5,5.5-6.2,14-1.9,20.4c12.8,18.5,21.3,39.2,25.4,61.5c1.4,7.6,8,13.1,15.7,13.1h51V272z"/>
	</g>
</g>
<g>
	<g>
		<path class="st0" d="M256,160c-52.9,0-96,43.1-96,96s43.1,96,96,96s96-43.1,96-96S308.9,160,256,160z M256,320
			c-35.3,0-64-28.7-64-64s28.7-64,64-64s64,28.7,64,64S291.3,320,256,320z"/>
	</g>
</g>
</svg>
